<svg xmlns="http://www.w3.org/2000/svg" xmlns:xlink="http://www.w3.org/1999/xlink" width="340" zoomAndPan="magnify" viewBox="0 0 255.12 233.04" height="300" preserveAspectRatio="xMidYMid meet" version="1.0"><defs><filter x="0%" y="0%" width="100%" height="100%" id="22170b45f6"><feColorMatrix values="0 0 0 0 1 0 0 0 0 1 0 0 0 0 1 0 0 0 1 0" color-interpolation-filters="sRGB"></feColorMatrix></filter><filter x="0%" y="0%" width="100%" height="100%" id="1d764f0607"><feColorMatrix values="0 0 0 0 1 0 0 0 0 1 0 0 0 0 1 0.2126 0.7152 0.0722 0 0" color-interpolation-filters="sRGB"></feColorMatrix></filter><clipPath id="8bf6a7af05"><path d="M 22.492188 15 L 231.628906 15 L 231.628906 209.082031 L 22.492188 209.082031 Z M 22.492188 15 " clip-rule="nonzero"></path></clipPath><clipPath id="646ea418f0"><path d="M 0.492188 0 L 209.628906 0 L 209.628906 194.078125 L 0.492188 194.078125 Z M 0.492188 0 " clip-rule="nonzero"></path></clipPath><mask id="cb9e6bd56f"><g filter="url(#22170b45f6)"><g filter="url(#1d764f0607)" transform="matrix(0.571702, 0, 0, 0.570144, 0.49282, -7.601427)"><image x="0" y="0" width="366" height="367" preserveAspectRatio="xMidYMid meet"></image></g></g></mask><clipPath id="bf7cbb84ce"><rect x="0" width="210" y="0" height="195"></rect></clipPath></defs><g clip-path="url(#8bf6a7af05)"><g transform="matrix(1, 0, 0, 1, 22, 15)"><g clip-path="url(#bf7cbb84ce)"><g clip-path="url(#646ea418f0)"><g mask="url(#cb9e6bd56f)"><g transform="matrix(0.571702, 0, 0, 0.570144, 0.49282, -7.601427)"><image x="0" y="0" width="366" height="367" preserveAspectRatio="xMidYMid meet"></image></g></g></g></g></g></g></svg>