<svg xmlns="http://www.w3.org/2000/svg" xmlns:xlink="http://www.w3.org/1999/xlink" width="340" zoomAndPan="magnify" viewBox="0 0 255.12 233.04" height="300" preserveAspectRatio="xMidYMid meet" version="1.0"><defs><filter x="0%" y="0%" width="100%" height="100%" id="e93e5af5d4"><feColorMatrix values="0 0 0 0 1 0 0 0 0 1 0 0 0 0 1 0 0 0 1 0" color-interpolation-filters="sRGB"></feColorMatrix></filter><filter x="0%" y="0%" width="100%" height="100%" id="67b8e23149"><feColorMatrix values="0 0 0 0 1 0 0 0 0 1 0 0 0 0 1 0.2126 0.7152 0.0722 0 0" color-interpolation-filters="sRGB"></feColorMatrix></filter><clipPath id="cfdc6080a1"><path d="M 28.027344 14.855469 L 226.09375 14.855469 L 226.09375 209.222656 L 28.027344 209.222656 Z M 28.027344 14.855469 " clip-rule="nonzero"></path></clipPath><clipPath id="28dacb4de8"><path d="M 0.0273438 0.855469 L 198.09375 0.855469 L 198.09375 195.222656 L 0.0273438 195.222656 Z M 0.0273438 0.855469 " clip-rule="nonzero"></path></clipPath><mask id="d913a13744"><g filter="url(#e93e5af5d4)"><g filter="url(#67b8e23149)" transform="matrix(0.642981, 0, 0, 0.642981, 0.0289417, -2.447191)"><image x="0" y="0" width="320" height="320" preserveAspectRatio="xMidYMid meet"></image></g></g></mask><clipPath id="111fd49b85"><rect x="0" width="199" y="0" height="196"></rect></clipPath></defs><g clip-path="url(#cfdc6080a1)"><g transform="matrix(1, 0, 0, 1, 28, 14)"><g clip-path="url(#111fd49b85)"><g clip-path="url(#28dacb4de8)"><g mask="url(#d913a13744)"><g transform="matrix(0.642981, 0, 0, 0.642981, 0.0289417, -2.447191)"><image x="0" y="0" width="320" height="320" preserveAspectRatio="xMidYMid meet"></image></g></g></g></g></g></g></svg>